<?xml version="1.0" encoding="UTF-8" standalone="no"?>
<svg
   xmlns:dc="http://purl.org/dc/elements/1.1/"
   xmlns:cc="http://creativecommons.org/ns#"
   xmlns:rdf="http://www.w3.org/1999/02/22-rdf-syntax-ns#"
   xmlns:svg="http://www.w3.org/2000/svg"
   xmlns="http://www.w3.org/2000/svg"
   xmlns:sodipodi="http://sodipodi.sourceforge.net/DTD/sodipodi-0.dtd"
   xmlns:inkscape="http://www.inkscape.org/namespaces/inkscape"
   version="1.2"
   id="Layer_1"
   x="0px"
   y="0px"
   viewBox="0 0 264.56698 238.13588"
   xml:space="preserve"
   sodipodi:docname="open-hardware-logo.svg"
   width="264.56699"
   height="238.13588"
   inkscape:version="0.92.2 2405546, 2018-03-11"><metadata
   id="metadata51"><rdf:RDF><cc:Work
       rdf:about=""><dc:format>image/svg+xml</dc:format><dc:type
         rdf:resource="http://purl.org/dc/dcmitype/StillImage" /><dc:title></dc:title></cc:Work></rdf:RDF></metadata><defs
   id="defs49" /><sodipodi:namedview
   pagecolor="#ffffff"
   bordercolor="#666666"
   borderopacity="1"
   objecttolerance="10"
   gridtolerance="10"
   guidetolerance="10"
   inkscape:pageopacity="0"
   inkscape:pageshadow="2"
   inkscape:window-width="1920"
   inkscape:window-height="1014"
   id="namedview47"
   showgrid="false"
   inkscape:zoom="3.1801325"
   inkscape:cx="106.424"
   inkscape:cy="114.74925"
   inkscape:window-x="0"
   inkscape:window-y="34"
   inkscape:window-maximized="1"
   inkscape:current-layer="Layer_1" />
<path
   d="m 263.13035,113.82732 -32.48398,-6.04073 c -0.79042,-0.1482 -1.65592,-0.89119 -1.92268,-1.65394 l -9.95723,-23.230223 c -0.37149,-0.717299 -0.30035,-1.843637 0.15809,-2.511536 l 18.92643,-27.585402 c 0.45251,-0.663946 0.36359,-1.673699 -0.20749,-2.244772 L 214.00423,26.921451 c -0.57108,-0.571073 -1.57885,-0.663947 -2.2428,-0.207484 L 183.6919,45.976324 c -0.66395,0.456463 -1.80214,0.53748 -2.52339,0.181795 l -22.51886,-9.218188 c -0.76472,-0.252932 -1.50969,-1.108554 -1.65986,-1.900942 L 150.73565,1.44052 C 150.58942,0.64813 149.80889,0 149.00267,0 h -33.43446 c -0.80424,0 -1.58478,0.64813 -1.731,1.44052 l -6.25217,33.598469 c -0.15018,0.792388 -0.89316,1.64801 -1.65986,1.900942 l -22.52084,9.218188 c -0.72322,0.355685 -1.86142,0.274668 -2.52339,-0.181795 L 52.813398,26.713967 c -0.665923,-0.456463 -1.675675,-0.363589 -2.244772,0.207484 L 26.927383,50.560717 c -0.569097,0.571073 -0.663946,1.580826 -0.207483,2.244772 l 18.928407,27.585402 c 0.454487,0.667899 0.525624,1.794237 0.156106,2.511536 l -9.959199,23.230223 c -0.264788,0.76275 -1.128314,1.50574 -1.922679,1.65394 L 1.440527,113.82732 C 0.646162,113.9775 0,114.75606 0,115.56228 l 0.002,33.43248 c 0,0.80622 0.648138,1.5907 1.440527,1.73495 l 31.685667,5.89648 c 0.792389,0.14425 1.640107,0.89712 1.881183,1.6658 l 9.892014,24.71027 c 0.35371,0.72521 0.270716,1.85945 -0.187723,2.52339 l -17.99772,26.22787 c -0.454487,0.66395 -0.361614,1.67568 0.207483,2.24675 l 23.643219,23.63927 c 0.569097,0.56712 1.578849,0.65999 2.244772,0.20748 l 25.7635,-17.68351 c 0.663947,-0.45448 1.776453,-0.49005 2.470038,-0.085 l 11.36218,6.06642 c 0.71928,0.36754 1.55909,0.0573 1.86735,-0.68766 l 23.42783,-56.60738 c 0.31024,-0.74496 0,-1.69543 -0.68765,-2.11633 l -2.84351,-1.74088 c -0.52563,-0.32012 -1.23898,-0.87143 -1.79819,-1.37729 -10.25758,-6.56833 -17.06304,-18.05896 -17.06304,-31.14424 0,-20.42031 16.5552,-36.973527 36.97353,-36.973527 20.41834,0 36.97155,16.553217 36.97155,36.973527 0,13.08528 -6.80347,24.57591 -17.06303,31.14424 -0.55526,0.50586 -1.27059,1.05717 -1.79424,1.37729 l -2.84351,1.74088 c -0.6837,0.4209 -0.99592,1.37137 -0.68765,2.11633 l 23.42585,56.60936 c 0.30826,0.74496 1.1461,1.05322 1.86735,0.68766 l 11.36218,-6.06642 c 0.69557,-0.40509 1.8061,-0.37149 2.47004,0.085 l 25.76548,17.68351 c 0.66395,0.45251 1.67567,0.35963 2.24279,-0.20749 l 23.64322,-23.63926 c 0.57108,-0.57108 0.66395,-1.58281 0.20749,-2.24675 L 219.8513,185.52763 c -0.45448,-0.66395 -0.53945,-1.79819 -0.18574,-2.52339 l 9.89201,-24.71028 c 0.24305,-0.76867 1.08484,-1.52154 1.87921,-1.66579 l 31.68567,-5.89648 c 0.79041,-0.14425 1.44052,-0.92874 1.44052,-1.73496 l 0.004,-33.43248 c 0.002,-0.80819 -0.64616,-1.58675 -1.43657,-1.73693"
   id="path10"
   inkscape:connector-curvature="0"
   style="fill:#0099b0;stroke-width:1.97603166" />

















</svg>