<?xml version="1.0" encoding="UTF-8" standalone="no"?>
<!-- Created with Inkscape (http://www.inkscape.org/) -->

<svg
   xmlns:dc="http://purl.org/dc/elements/1.1/"
   xmlns:cc="http://creativecommons.org/ns#"
   xmlns:rdf="http://www.w3.org/1999/02/22-rdf-syntax-ns#"
   xmlns:svg="http://www.w3.org/2000/svg"
   xmlns="http://www.w3.org/2000/svg"
   xmlns:sodipodi="http://sodipodi.sourceforge.net/DTD/sodipodi-0.dtd"
   xmlns:inkscape="http://www.inkscape.org/namespaces/inkscape"
   sodipodi:docname="vim.svg"
   inkscape:version="0.92.4 5da689c313, 2019-01-14"
   version="1.1"
   id="svg2"
   height="70mm"
   width="69.584999mm">
  <defs
     id="defs4">
    <inkscape:perspective
       sodipodi:type="inkscape:persp3d"
       inkscape:vp_x="0 : 526.18109 : 1"
       inkscape:vp_y="0 : 1000 : 0"
       inkscape:vp_z="744.09448 : 526.18109 : 1"
       inkscape:persp3d-origin="372.04724 : 350.78739 : 1"
       id="perspective10" />
    <inkscape:perspective
       id="perspective2884"
       inkscape:persp3d-origin="0.5 : 0.33333333 : 1"
       inkscape:vp_z="1 : 0.5 : 1"
       inkscape:vp_y="0 : 1000 : 0"
       inkscape:vp_x="0 : 0.5 : 1"
       sodipodi:type="inkscape:persp3d" />
  </defs>
  <sodipodi:namedview
     id="base"
     pagecolor="#ffffff"
     bordercolor="#666666"
     borderopacity="1.0"
     inkscape:pageopacity="0.0"
     inkscape:pageshadow="2"
     inkscape:zoom="1.979899"
     inkscape:cx="121.834"
     inkscape:cy="197.26391"
     inkscape:document-units="px"
     inkscape:current-layer="layer1"
     showgrid="false"
     inkscape:window-width="1920"
     inkscape:window-height="1014"
     inkscape:window-x="0"
     inkscape:window-y="34"
     inkscape:window-maximized="1"
     units="mm" />
  <metadata
     id="metadata7">
    <rdf:RDF>
      <cc:Work
         rdf:about="">
        <dc:format>image/svg+xml</dc:format>
        <dc:type
           rdf:resource="http://purl.org/dc/dcmitype/StillImage" />
        <dc:title></dc:title>
      </cc:Work>
    </rdf:RDF>
  </metadata>
  <g
     inkscape:label="Layer 1"
     inkscape:groupmode="layer"
     id="layer1"
     transform="translate(0,-787.79524)">
    <path
       style="fill:#19953f;fill-opacity:1;stroke:#000000;stroke-width:5.3381772;stroke-linecap:butt;stroke-linejoin:miter;stroke-miterlimit:4;stroke-dasharray:none;stroke-opacity:1"
       d="M 131.87976,791.58683 3.7635265,921.22827 131.11717,1048.5819 259.23342,919.70308 Z"
       id="path2890"
       inkscape:connector-curvature="0" />
    <path
       style="fill:#d0d0cf;fill-opacity:1;stroke:#000000;stroke-width:5.3381772;stroke-linecap:butt;stroke-linejoin:miter;stroke-miterlimit:4;stroke-dasharray:none;stroke-opacity:1"
       d="m 23.212601,803.98273 -5.338178,5.33817 v 20.59012 l 5.814801,5.62415 7.721291,0.19065 0.190649,179.49618 7.625967,7.6261 H 62.86763 L 251.99161,830.67361 V 810.8461 l -5.33817,-5.33818 -85.41083,-0.76259 -5.33818,7.62596 v 16.77713 l 5.33818,6.86337 h 6.86336 l -66.34591,64.05813 0.66728,-63.77215 7.62596,-10e-6 6.1961,-6.38675 v -16.77713 l -6.86337,-7.62597 -86.173429,-1.52519 z"
       id="path3664"
       sodipodi:nodetypes="cccccccccccccccccccccccc"
       inkscape:connector-curvature="0" />
    <path
       style="fill:#d0d0cf;fill-opacity:1;stroke:#000000;stroke-width:5.3381772;stroke-linecap:butt;stroke-linejoin:miter;stroke-miterlimit:4;stroke-dasharray:none;stroke-opacity:1"
       d="m 141.36282,928.17759 4.57558,-3.81298 12.96414,0.38131 4.19428,4.19428 -4.57557,12.96414 -3.81299,3.43168 -13.50339,-0.15794 -3.65504,-4.41763 z"
       id="path3666"
       sodipodi:nodetypes="ccccccccc"
       inkscape:connector-curvature="0" />
    <path
       style="fill:#d0d0cf;fill-opacity:1;stroke:#000000;stroke-width:5.338;stroke-linecap:butt;stroke-linejoin:miter;stroke-miterlimit:4;stroke-dasharray:none;stroke-opacity:1"
       d="m 125.34829,952.5807 30.50387,0.38129 -16.01453,48.04361 h 5.71947 l -3.43168,9.5324 -28.59738,-0.3812 15.63323,-46.13716 -7.62597,0.3813 z"
       id="path3668"
       inkscape:connector-curvature="0" />
    <path
       style="fill:#d0d0cf;fill-opacity:1;stroke:#000000;stroke-width:5.3381772;stroke-linecap:butt;stroke-linejoin:miter;stroke-miterlimit:4;stroke-dasharray:none;stroke-opacity:1"
       d="m 163.09682,952.96199 -3.97092,10.34131 h 7.29094 l -16.28416,47.2347 h 25.1657 l 3.63587,-9.309 -6.52832,-0.4276 8.99322,-28.01189 16.01453,-0.38131 -11.82025,37.3672 24.71897,0.3814 3.113,-8.8161 -5.94001,-0.1744 9.7558,-28.37679 h 13.72674 l -11.82025,37.36729 25.97454,0.2695 3.20833,-8.8324 -6.20964,-0.207 12.48752,-39.65505 -4.95688,-8.00727 h -15.63323 l -6.10077,6.10078 h -6.10078 l -6.48206,-6.48207 h -13.34545 l -5.71948,5.71947 h -6.48207 l -6.48207,-6.10077 z"
       id="path3670"
       sodipodi:nodetypes="cccccccccccccccccccccccccccccc"
       inkscape:connector-curvature="0" />
  </g>
</svg>
