<?xml version="1.0" encoding="UTF-8" standalone="no"?>
<!-- Created with Inkscape (http://www.inkscape.org/) -->

<svg
   xmlns:dc="http://purl.org/dc/elements/1.1/"
   xmlns:cc="http://creativecommons.org/ns#"
   xmlns:rdf="http://www.w3.org/1999/02/22-rdf-syntax-ns#"
   xmlns:svg="http://www.w3.org/2000/svg"
   xmlns="http://www.w3.org/2000/svg"
   xmlns:sodipodi="http://sodipodi.sourceforge.net/DTD/sodipodi-0.dtd"
   xmlns:inkscape="http://www.inkscape.org/namespaces/inkscape"
   width="224"
   height="66"
   viewBox="0 0 224 66.000001"
   id="svg2"
   version="1.1"
   inkscape:version="0.91 r13725"
   inkscape:export-filename="/home/pry/Pictures/Logos/discourse-logo2.png"
   inkscape:export-xdpi="90"
   inkscape:export-ydpi="90"
   sodipodi:docname="0x00sec.svg">
  <defs
     id="defs4" />
  <sodipodi:namedview
     id="base"
     pagecolor="#ffffff"
     bordercolor="#666666"
     borderopacity="1.0"
     inkscape:pageopacity="0.0"
     inkscape:pageshadow="2"
     inkscape:zoom="2"
     inkscape:cx="184.17404"
     inkscape:cy="21.323936"
     inkscape:document-units="px"
     inkscape:current-layer="text3375"
     showgrid="false"
     units="px"
     inkscape:snap-bbox="true"
     inkscape:snap-text-baseline="true"
     showguides="true"
     inkscape:guide-bbox="true"
     inkscape:window-width="1920"
     inkscape:window-height="1017"
     inkscape:window-x="0"
     inkscape:window-y="30"
     inkscape:window-maximized="1">
    <sodipodi:guide
       position="261.62951,620.83976"
       orientation="0,1"
       id="guide3537" />
    <sodipodi:guide
       position="-36.769553,106.06602"
       orientation="0,1"
       id="guide3539" />
    <sodipodi:guide
       position="313.95542,543.05802"
       orientation="0,1"
       id="guide3541" />
    <sodipodi:guide
       position="305.47013,182.43355"
       orientation="0,1"
       id="guide3543" />
  </sodipodi:namedview>
  <metadata
     id="metadata7">
    <rdf:RDF>
      <cc:Work
         rdf:about="">
        <dc:format>image/svg+xml</dc:format>
        <dc:type
           rdf:resource="http://purl.org/dc/dcmitype/StillImage" />
        <dc:title />
      </cc:Work>
    </rdf:RDF>
  </metadata>
  <g
     inkscape:label="Layer 1"
     inkscape:groupmode="layer"
     id="layer1"
     transform="translate(0,-986.36216)">
    <path
       style="font-style:normal;font-weight:normal;font-size:355.70474243px;line-height:125%;font-family:sans-serif;letter-spacing:0px;word-spacing:0px;fill:#000000;fill-opacity:1;stroke:none;stroke-width:1px;stroke-linecap:butt;stroke-linejoin:miter;stroke-opacity:1"
       d="m 15.984375,990.73716 -11.115234,6.57813 11.111328,6.58591 0.0039,-13.16404 z m 0.904297,0.002 -0.0039,13.16204 11.050781,-6.57805 -11.046875,-6.58399 z m 55.882812,0.0156 -11.115234,6.57812 11.111328,6.58392 0.0039,-13.16204 z m 0.904297,0 -0.0039,13.16404 11.050785,-6.58006 -11.046879,-6.58398 z m 27.488279,0.01 -11.11523,6.57813 11.11133,6.58601 0.004,-13.16414 z m 0.9043,0 -0.004,13.16414 11.05078,-6.5782 -11.04687,-6.58594 z m -97.652344,7.34961 -0.0039,13.16413 11.115235,-6.5781 -11.111328,-6.58603 z m 23.970703,0.0117 -11.050781,6.57813 11.046874,6.5839 0.0039,-13.16203 z m 32.816406,0.01 -0.0039,13.16413 11.115234,-6.5782 -11.111328,-6.58593 z m 23.970705,0.01 -11.050783,6.57813 11.046873,6.5859 0.004,-13.16403 z m 4.42383,0.004 -0.004,13.16013 11.11328,-6.5781 -11.10937,-6.58203 z m 23.9707,0.008 -11.05078,6.57813 11.04687,6.584 0.004,-13.16213 z m -96.683594,7.35153 -0.0039,13.1622 11.048829,-6.5782 -11.044922,-6.584 z m 56.787109,0.016 -0.0039,13.164 11.050781,-6.5781 -11.046875,-6.5859 z m 28.392575,0.014 -0.004,13.1622 11.05078,-6.5782 -11.04688,-6.584 z m -97.652341,7.3497 -0.0039,13.2304 11.115235,-6.5781 -11.111329,-6.6523 z m 23.970703,0.014 -11.050781,6.6446 11.046875,6.5839 0.0039,-13.2285 z m 4.421876,0 -0.0039,13.1621 11.115235,-6.5781 -11.111328,-6.584 z m 23.970703,0.014 -11.048829,6.5781 5.296876,3.1914 5.751953,-3.4551 0,-6.3144 z m 4.423828,0 -0.0039,13.2285 11.115235,-6.5781 -11.111328,-6.6504 z m 23.970701,0.012 -11.050779,6.6445 11.046879,6.586 0.004,-13.2305 z m 4.42383,0 -0.004,13.2305 11.11524,-6.5781 -11.11133,-6.6524 z m 23.9707,0.014 -11.05078,6.6445 11.04688,6.584 0.004,-13.2285 z m -69.195309,7.3574 -11.115235,6.5801 11.111328,6.584 0.0039,-13.1641 z m 0.904297,0 -0.0039,13.1621 11.050781,-6.5782 c -1.378149,-0.7983 -2.476651,-1.4418 -3.294921,-1.9296 -0.81828,-0.4878 -1.572649,-0.9311 -2.261719,-1.3301 -0.68907,-0.4435 -1.441506,-0.9089 -2.259766,-1.3965 -0.81827,-0.4878 -1.895389,-1.1296 -3.230468,-1.9277 z m -29.298829,0.057 -11.115234,6.5781 11.113281,6.586 0.0039,-13.1641 -0.002,0 z m 56.78711,0.018 -11.113281,6.5781 11.109374,6.5859 0.0059,-13.164 -0.002,0 z m 28.394531,0.014 -11.11523,6.5781 11.11132,6.584 0.004,-13.1621 z m -44.384766,7.2988 -11.048828,6.5781 11.044922,6.6523 0.0039,-13.2304 z m -52.363281,0.051 -0.0039,13.1621 11.115234,-6.5782 -11.111328,-6.5839 z m 23.970703,0.012 -11.050781,6.5781 11.046875,6.5859 0.0039,-13.164 z m 32.816406,0.014 -0.0039,13.1621 11.115235,-6.5762 -11.111329,-6.5859 z m 23.970708,0.014 -11.050786,6.5781 11.046876,6.584 0.004,-13.1621 z m 4.42187,0 -0.004,13.1621 11.11524,-6.5781 -11.11133,-6.584 z m 23.9707,0.012 -11.04882,6.5782 11.04687,6.5859 0.004,-13.1641 -0.002,0 z m -74.878902,3.4356 -5.88086,3.4551 0,6.25 11.113281,-6.6465 -5.232421,-3.0586 z m -22.708985,3.916 -11.115234,6.5781 11.111328,6.584 0.0039,-13.1621 z m 0.904297,0 -0.0039,13.1621 11.050781,-6.5781 -11.046875,-6.584 z m 55.882812,0.016 -11.115234,6.5782 11.111328,6.5859 0.0039,-13.1641 z m 0.904297,0 -0.0039,13.1621 11.050777,-6.5781 -11.046871,-6.584 z m 27.490231,0.012 -11.11523,6.5781 11.11133,6.586 0.004,-13.1641 z m 0.9043,0 -0.004,13.1641 11.05079,-6.5782 -11.04688,-6.5859 z"
       id="text3336"
       inkscape:connector-curvature="0" />
    <text
       xml:space="preserve"
       style="font-style:normal;font-variant:normal;font-weight:normal;font-stretch:normal;font-size:40px;line-height:125%;font-family:'Aldo the Apache';-inkscape-font-specification:'Aldo the Apache';letter-spacing:0px;word-spacing:0px;fill:#ffffff;fill-opacity:1;stroke:none;stroke-width:1px;stroke-linecap:butt;stroke-linejoin:miter;stroke-opacity:1"
       x="130.75"
       y="1016.8622"
       id="text3371"
       sodipodi:linespacing="125%"><tspan
         sodipodi:role="line"
         id="tspan3373"
         x="130.75"
         y="1016.8622"
         style="font-style:normal;font-variant:normal;font-weight:normal;font-stretch:normal;font-size:7.5px;font-family:'Aldo the Apache';-inkscape-font-specification:'Aldo the Apache'" /></text>
    <g
       transform="scale(0.99089015,1.0091936)"
       style="font-style:normal;font-variant:normal;font-weight:normal;font-stretch:normal;font-size:74.96033478px;line-height:125%;font-family:'Aldo the Apache';-inkscape-font-specification:'Aldo the Apache';letter-spacing:0px;word-spacing:0px;fill:#000000;fill-opacity:1;stroke:none;stroke-width:1px;stroke-linecap:butt;stroke-linejoin:miter;stroke-opacity:1"
       id="text3375">
      <path
         d="m 151.81524,1036.8374 -29.09837,0 0,-16.4708 11.09032,0 0,6.4419 6.88112,0 0,-8.4184 -17.60543,-13.2864 0,-21.19239 28.40294,0 0,15.73874 -10.06547,0 0,-5.63667 -7.24714,0 0,6.91772 17.64203,13.2498 0,22.6565 z"
         id="path3384"
         inkscape:connector-curvature="0" />
      <path
         d="m 156.68327,983.91131 25.69441,0 0,10.06547 -14.7139,0 0,10.21192 13.98186,0 0,9.8824 -13.83545,0 0,12.7374 14.93351,0 0,10.0289 -26.06043,0 0,-52.92609 z"
         id="path3386"
         inkscape:connector-curvature="0" />
      <path
         d="m 206.90083,1026.8085 0,-6.4419 11.12693,0 0,9.1505 -7.32035,7.3203 -23.86432,0 0,-45.64235 7.90597,-7.28374 23.2787,0 0,19.98449 -11.12693,0 0,-9.91902 -8.93082,0 0,32.83172 8.93082,0 z"
         id="path3388"
         inkscape:connector-curvature="0" />
    </g>
  </g>
</svg>
